<?xml version="1.0" standalone="no"?>
<!DOCTYPE svg PUBLIC "-//W3C//DTD SVG 20010904//EN"
 "http://www.w3.org/TR/2001/REC-SVG-20010904/DTD/svg10.dtd">
<svg version="1.0" xmlns="http://www.w3.org/2000/svg"
 width="772.000000pt" height="194.000000pt" viewBox="0 0 772.000000 194.000000"
 preserveAspectRatio="xMidYMid meet">

<g transform="translate(0.000000,194.000000) scale(0.100000,-0.100000)"
fill="#000000" stroke="none">
<path d="M487 1154 c-4 -4 -7 -91 -7 -194 l0 -186 -75 -89 c-41 -49 -75 -93
-75 -97 0 -28 29 -6 95 72 69 81 79 90 94 77 9 -7 54 -46 100 -86 60 -53 86
-70 94 -62 8 8 7 15 -3 24 -8 7 -53 47 -100 88 -47 41 -88 79 -92 84 -4 6 -8
85 -8 178 l0 167 155 0 155 0 0 -41 c0 -28 4 -39 13 -36 7 2 12 22 12 53 l0
49 -176 3 c-96 1 -178 -1 -182 -4z"/>
<path d="M1663 1153 c-10 -3 -13 -52 -13 -195 l0 -190 -75 -88 c-41 -49 -75
-93 -75 -99 0 -28 31 -3 99 79 l74 89 96 -84 c89 -79 121 -99 121 -76 0 5 -47
51 -105 102 l-105 93 2 170 3 171 150 0 150 0 3 -43 c3 -36 -1 -46 -22 -63
-34 -27 -41 -55 -21 -85 33 -51 103 -48 125 6 13 32 3 60 -30 83 -14 10 -20
27 -22 73 l-3 59 -170 2 c-93 1 -176 -1 -182 -4z m379 -150 c34 -31 11 -93
-35 -93 -27 0 -57 28 -57 53 0 48 56 73 92 40z"/>
<path d="M2728 951 l-3 -198 -77 -91 c-77 -89 -90 -112 -65 -112 10 0 45 38
143 157 l22 26 98 -87 c55 -47 105 -86 112 -86 29 0 4 31 -94 114 l-104 89 0
178 0 179 160 0 160 0 0 -49 c0 -40 -4 -51 -19 -56 -24 -7 -45 -57 -36 -85 4
-12 18 -26 31 -32 22 -10 24 -17 24 -73 0 -67 6 -81 27 -64 8 7 13 33 13 66 0
47 4 58 25 75 16 12 25 30 25 47 0 32 -25 71 -46 71 -11 0 -14 15 -14 65 l0
65 -189 0 -190 0 -3 -199z m412 39 c24 -24 25 -38 4 -68 -29 -42 -104 -20
-104 30 0 52 63 75 100 38z"/>
<path d="M3890 953 l0 -198 -80 -92 c-80 -91 -92 -113 -67 -113 11 0 132 132
158 173 4 5 52 -29 107 -77 89 -77 132 -102 132 -78 0 5 -49 51 -110 102
l-110 93 0 179 0 178 160 0 160 0 0 -44 c0 -36 -6 -50 -30 -74 -38 -39 -38
-56 2 -95 28 -28 31 -38 29 -80 -2 -47 12 -82 30 -71 5 3 9 27 9 54 l0 49 35
-15 c68 -28 94 -7 28 23 -21 10 -40 19 -42 20 -2 2 3 11 12 21 28 31 22 78
-13 104 -27 20 -30 27 -30 80 l0 58 -190 0 -190 0 0 -197z m417 31 c15 -24 15
-29 2 -53 -27 -48 -109 -32 -109 22 0 56 76 77 107 31z"/>
<path d="M5937 1144 c-4 -4 -7 -89 -7 -188 l0 -181 -75 -85 c-41 -47 -74 -91
-75 -97 0 -27 27 -10 70 42 25 30 57 69 72 86 l27 32 94 -82 c90 -76 117 -93
117 -72 0 6 -45 49 -100 97 l-100 87 0 169 0 169 148 -3 147 -3 3 -32 c2 -19
-1 -33 -7 -33 -20 0 -51 -40 -51 -65 0 -14 9 -34 20 -45 20 -20 20 -20 -21
-41 -52 -26 -40 -47 14 -24 48 20 47 21 47 -23 0 -31 -7 -45 -40 -77 -27 -26
-37 -42 -30 -49 7 -7 25 5 55 34 39 39 45 49 45 87 0 24 2 43 4 43 2 0 22 -7
44 -14 66 -24 64 8 -1 33 -27 10 -27 12 -13 33 23 32 20 66 -8 92 -18 16 -26
35 -28 67 l-3 44 -171 3 c-93 1 -173 -1 -177 -4z m367 -117 c38 -28 13 -97
-34 -97 -28 0 -52 25 -52 55 0 30 24 55 52 55 9 0 24 -6 34 -13z"/>
<path d="M6857 1144 c-4 -4 -7 -89 -7 -189 l0 -181 -75 -88 c-66 -77 -82 -106
-57 -106 4 0 39 38 77 85 39 46 73 84 77 85 3 0 48 -36 99 -80 50 -44 96 -80
100 -80 26 0 0 34 -68 93 -138 116 -124 85 -121 270 l3 162 148 3 147 3 0 -35
c0 -25 -6 -38 -25 -50 -30 -19 -34 -69 -9 -97 15 -17 14 -19 -20 -35 -20 -10
-36 -21 -36 -25 0 -17 21 -19 49 -4 41 20 41 20 41 -22 0 -29 -8 -45 -36 -74
-48 -49 -36 -70 16 -29 21 16 42 30 47 30 5 0 22 -13 38 -30 16 -16 32 -30 37
-30 19 0 5 29 -32 65 -31 30 -40 47 -40 73 0 31 2 34 23 28 12 -4 34 -9 50
-12 42 -10 33 14 -13 32 l-40 16 20 25 c27 35 25 49 -9 84 -22 22 -31 41 -33
72 l-3 42 -171 3 c-93 1 -173 -1 -177 -4z m371 -120 c12 -8 22 -26 22 -39 0
-24 -33 -55 -57 -55 -18 0 -53 37 -53 55 0 18 35 55 53 55 7 0 23 -7 35 -16z"/>
<path d="M4957 1114 c-4 -4 -7 -87 -7 -184 l0 -176 -70 -83 c-38 -45 -70 -87
-70 -92 0 -25 31 0 90 71 36 43 68 79 72 79 4 1 45 -33 93 -74 79 -69 122 -94
109 -62 -3 6 -47 48 -99 92 l-95 80 0 163 0 162 145 0 145 0 0 -31 c0 -21 -8
-37 -25 -51 -29 -22 -34 -68 -10 -88 22 -18 19 -24 -21 -44 -50 -23 -32 -44
19 -22 l36 15 3 -41 c4 -60 28 -62 28 -4 0 51 2 52 53 31 25 -10 38 -11 42 -4
9 13 8 14 -38 33 -35 14 -37 17 -23 32 24 24 20 69 -8 92 -18 14 -26 30 -28
63 l-3 44 -166 3 c-91 1 -168 -1 -172 -4z m367 -120 c33 -32 8 -84 -39 -84
-15 0 -31 10 -41 25 -15 23 -15 27 0 50 19 29 56 33 80 9z"/>
</g>
</svg>
